<svg data-v-fde0c5aa="" xmlns="http://www.w3.org/2000/svg" viewBox="0 0 300 300" class="iconLeft"><!----><defs data-v-fde0c5aa=""><!----></defs><rect data-v-fde0c5aa="" fill="transparent" x="0" y="0" width="300px" height="300px" class="logo-background-square"></rect><defs data-v-fde0c5aa=""><!----></defs><g data-v-fde0c5aa="" id="856a6244-0ae8-4e97-ab4f-b06fdb0fac6d" fill="#000000" transform="matrix(2.5868533027099234,0,0,2.5868533027099234,90.84566172476673,127.00287448429097)"><path d="M0.46 5.10L0.46 6.30L1.69 6.30L1.69 13.73L3.02 13.73L3.02 4.05L1.83 4.05C1.78 4.75 1.54 5.10 0.99 5.10ZM8.61 3.86C6.58 3.86 5.11 5.60 5.11 8.90C5.11 12.19 6.58 13.92 8.61 13.92C10.67 13.92 12.14 12.19 12.14 8.90C12.14 5.60 10.67 3.86 8.61 3.86ZM8.61 5.12C9.97 5.12 10.88 6.41 10.88 8.90C10.88 11.40 9.97 12.66 8.61 12.66C7.27 12.66 6.37 11.40 6.37 8.90C6.37 6.41 7.27 5.12 8.61 5.12ZM25.49 6.01C24.88 4.76 23.74 3.86 21.97 3.86C19.46 3.86 17.63 5.61 17.63 8.89C17.63 12.19 19.47 13.92 21.94 13.92C23.46 13.92 24.64 13.26 25.47 11.89L24.40 11.12C23.76 12.15 23.02 12.60 21.97 12.60C20.22 12.60 19.05 11.35 19.05 8.90C19.05 6.45 20.22 5.19 21.97 5.19C23.16 5.19 23.90 5.78 24.46 6.79ZM29.68 6.15C27.85 6.15 26.54 7.49 26.54 10.02C26.54 12.57 27.83 13.92 29.68 13.92C31.50 13.92 32.80 12.57 32.80 10.02C32.80 7.49 31.49 6.15 29.68 6.15ZM29.68 7.38C30.77 7.38 31.54 8.29 31.54 10.04C31.54 11.77 30.77 12.68 29.68 12.68C28.56 12.68 27.82 11.77 27.82 10.04C27.82 8.29 28.57 7.38 29.68 7.38ZM34.66 6.33L34.66 13.73L35.99 13.73L35.99 8.71C36.40 7.73 37.06 7.41 37.84 7.41C38.82 7.41 39.47 7.90 39.47 9.18L39.47 13.73L40.80 13.73L40.80 9.04C40.80 6.97 39.76 6.15 38.26 6.15C37.25 6.15 36.47 6.52 35.92 7.24L35.92 6.33ZM42.11 6.33L42.11 7.42L42.95 7.42L42.95 11.91C42.95 13.19 43.71 13.80 44.62 13.80C45.15 13.80 45.72 13.59 45.99 13.29L46.21 12.07C45.88 12.39 45.54 12.52 45.15 12.52C44.59 12.52 44.28 12.21 44.28 11.62L44.28 7.42L46.17 7.42L46.17 6.33L44.28 6.33L44.28 3.89L42.95 4.33L42.95 6.33ZM53.49 10.49C53.51 10.33 53.52 10.18 53.52 10.00C53.52 7.52 52.21 6.15 50.39 6.15C48.57 6.15 47.26 7.52 47.26 10.00C47.26 12.60 48.71 13.92 50.47 13.92C51.80 13.92 52.63 13.17 53.03 12.61L52.15 11.84C51.81 12.33 51.25 12.71 50.53 12.71C49.55 12.71 48.66 12.03 48.51 10.49ZM50.40 7.35C51.39 7.35 52.12 8.08 52.28 9.49L48.51 9.49C48.65 8.12 49.38 7.35 50.40 7.35ZM60.47 7.13C59.96 6.64 59.02 6.15 57.76 6.15C56.18 6.15 55.01 6.92 55.01 8.27C55.01 9.09 55.43 9.60 56.06 9.91C56.69 10.22 57.72 10.40 58.52 10.72C59.08 10.95 59.32 11.19 59.32 11.59C59.32 12.31 58.62 12.68 57.67 12.68C56.66 12.68 55.75 12.25 55.22 11.75L54.70 12.87C55.24 13.41 56.32 13.92 57.68 13.92C59.15 13.92 60.63 13.33 60.63 11.59C60.63 10.74 60.27 10.25 59.51 9.87C58.69 9.46 57.61 9.30 56.95 9.02C56.56 8.85 56.32 8.62 56.32 8.25C56.32 7.74 56.77 7.34 57.71 7.34C58.66 7.34 59.49 7.76 59.98 8.27ZM61.29 6.33L61.29 7.42L62.13 7.42L62.13 11.91C62.13 13.19 62.89 13.80 63.80 13.80C64.33 13.80 64.90 13.59 65.17 13.29L65.39 12.07C65.06 12.39 64.72 12.52 64.33 12.52C63.77 12.52 63.46 12.21 63.46 11.62L63.46 7.42L65.35 7.42L65.35 6.33L63.46 6.33L63.46 3.89L62.13 4.33L62.13 6.33Z"></path></g><defs data-v-fde0c5aa=""><linearGradient data-v-fde0c5aa="" gradientTransform="rotate(25)" id="9319cf31-188d-4416-97db-e3b0539f553a" x1="0%" y1="0%" x2="100%" y2="0%"><stop data-v-fde0c5aa="" offset="0%" stop-color="#B41E37" stop-opacity="1"></stop><stop data-v-fde0c5aa="" offset="100%" stop-color="#B89DAD" stop-opacity="1"></stop></linearGradient></defs><g data-v-fde0c5aa="" id="35ca8e2d-737a-4fd7-9ec0-25eef218f784" stroke="none" fill="url(#9319cf31-188d-4416-97db-e3b0539f553a)" transform="matrix(1.2198629457999899,0,0,1.2198629457999899,40,130.48829115817944)"><path d="M31 .995v30H1v-30h30m1-1H0v32h32v-32z"></path><path d="M16 7.045L24.955 16 16 24.955 7.045 16 16 7.045m0-1.414L5.631 16 16 26.369 26.369 16 16 5.631z"></path><path d="M16 12.538L19.462 16 16 19.462 12.538 16 16 12.538m0-1.414L11.124 16 16 20.876 20.876 16 16 11.124z"></path></g><!----></svg>